<?xml version="1.0" encoding="UTF-8" standalone="no"?><svg xmlns="http://www.w3.org/2000/svg" xmlns:xlink="http://www.w3.org/1999/xlink" clip-rule="evenodd" stroke-miterlimit="10" viewBox="0 0 1024 768"><desc>SVG generated by Keynote</desc><defs></defs><g transform="matrix(1.00, 0.00, -0.00, -1.00, 0.0, 768.0)"><g><clipPath id="clip0x600000ca1e00"><path d="M 0.0 768.0 L 1024.0 768.0 L 1024.0 0.0 L 0.0 0.0 Z M 0.0 768.0 "></path></clipPath><g clip-path="url(#clip0x600000ca1e00)"><image xlink:href="../../D1633A7A-1E45-48FF-BA06-56002168097B/assets/4E131E180F71435CE7831D195B770FC0.jpeg" width="2048.00" height="1536.00" transform="matrix(0.50, 0.00, -0.00, -0.50, 0.0, 768.0)"></image></g></g><text xml:space="preserve" font-family="Helvetica-Light,Helvetica" font-size="59.2" fill="#FEFFFF" transform="matrix(1.00, 0.00, -0.00, -1.00, 280.1, 433.6)">…</text><text xml:space="preserve" font-family="Helvetica-Light,Helvetica" font-size="59.2" fill="#FEFFFF" transform="matrix(1.00, 0.00, -0.00, -1.00, 339.3, 433.6)"> </text><text xml:space="preserve" font-family="Helvetica-Light,Helvetica" font-size="59.2" fill="#FEFFFF" transform="matrix(1.00, 0.00, -0.00, -1.00, 355.7, 433.6)">S</text><text xml:space="preserve" font-family="Helvetica-Light,Helvetica" font-size="59.2" fill="#FEFFFF" transform="matrix(1.00, 0.00, -0.00, -1.00, 391.9, 433.6)">p</text><text xml:space="preserve" font-family="Helvetica-Light,Helvetica" font-size="59.2" fill="#FEFFFF" transform="matrix(1.00, 0.00, -0.00, -1.00, 428.1, 433.6)">r</text><text xml:space="preserve" font-family="Helvetica-Light,Helvetica" font-size="59.2" fill="#FEFFFF" transform="matrix(1.00, 0.00, -0.00, -1.00, 447.8, 433.6)">i</text><text xml:space="preserve" font-family="Helvetica-Light,Helvetica" font-size="59.2" fill="#FEFFFF" transform="matrix(1.00, 0.00, -0.00, -1.00, 460.9, 433.6)">n</text><text xml:space="preserve" font-family="Helvetica-Light,Helvetica" font-size="59.2" fill="#FEFFFF" transform="matrix(1.00, 0.00, -0.00, -1.00, 493.9, 433.6)">g</text><text xml:space="preserve" font-family="Helvetica-Light,Helvetica" font-size="59.2" fill="#FEFFFF" transform="matrix(1.00, 0.00, -0.00, -1.00, 530.0, 433.6)"> </text><text xml:space="preserve" font-family="Helvetica-Light,Helvetica" font-size="59.2" fill="#FEFFFF" transform="matrix(1.00, 0.00, -0.00, -1.00, 546.5, 433.6)">B</text><text xml:space="preserve" font-family="Helvetica-Light,Helvetica" font-size="59.2" fill="#FEFFFF" transform="matrix(1.00, 0.00, -0.00, -1.00, 586.0, 433.6)">o</text><text xml:space="preserve" font-family="Helvetica-Light,Helvetica" font-size="59.2" fill="#FEFFFF" transform="matrix(1.00, 0.00, -0.00, -1.00, 618.9, 433.6)">o</text><text xml:space="preserve" font-family="Helvetica-Light,Helvetica" font-size="59.2" fill="#FEFFFF" transform="matrix(1.00, 0.00, -0.00, -1.00, 651.8, 433.6)">t</text><text xml:space="preserve" font-family="Helvetica-Light,Helvetica" font-size="59.2" fill="#FEFFFF" transform="matrix(1.00, 0.00, -0.00, -1.00, 668.3, 433.6)"> </text><text xml:space="preserve" font-family="Helvetica-Light,Helvetica" font-size="59.2" fill="#FEFFFF" transform="matrix(1.00, 0.00, -0.00, -1.00, 684.7, 433.6)">i</text><text xml:space="preserve" font-family="Helvetica-Light,Helvetica" font-size="59.2" fill="#FEFFFF" transform="matrix(1.00, 0.00, -0.00, -1.00, 697.9, 433.6)">s</text><text xml:space="preserve" font-family="Helvetica-Light,Helvetica" font-size="59.2" fill="#FEFFFF" transform="matrix(1.00, 0.00, -0.00, -1.00, 727.5, 433.6)">t</text><text xml:space="preserve" font-family="Helvetica-Light,Helvetica" font-size="59.2" fill="#FEFFFF" transform="matrix(1.00, 0.00, -0.00, -1.00, 743.9, 433.6)"> </text><text xml:space="preserve" font-family="Helvetica-Light,Helvetica" font-size="59.2" fill="#FEFFFF" transform="matrix(1.00, 0.00, -0.00, -1.00, 107.9, 361.6)">M</text><text xml:space="preserve" font-family="Helvetica-Light,Helvetica" font-size="59.2" fill="#FEFFFF" transform="matrix(1.00, 0.00, -0.00, -1.00, 157.2, 361.6)">i</text><text xml:space="preserve" font-family="Helvetica-Light,Helvetica" font-size="59.2" fill="#FEFFFF" transform="matrix(1.00, 0.00, -0.00, -1.00, 170.3, 361.6)">c</text><text xml:space="preserve" font-family="Helvetica-Light,Helvetica" font-size="59.2" fill="#FEFFFF" transform="matrix(1.00, 0.00, -0.00, -1.00, 203.2, 361.6)">r</text><text xml:space="preserve" font-family="Helvetica-Light,Helvetica" font-size="59.2" fill="#FEFFFF" transform="matrix(1.00, 0.00, -0.00, -1.00, 221.9, 361.6)">o</text><text xml:space="preserve" font-family="Helvetica-Light,Helvetica" font-size="59.2" fill="#FEFFFF" transform="matrix(1.00, 0.00, -0.00, -1.00, 254.8, 361.6)">s</text><text xml:space="preserve" font-family="Helvetica-Light,Helvetica" font-size="59.2" fill="#FEFFFF" transform="matrix(1.00, 0.00, -0.00, -1.00, 284.4, 361.6)">e</text><text xml:space="preserve" font-family="Helvetica-Light,Helvetica" font-size="59.2" fill="#FEFFFF" transform="matrix(1.00, 0.00, -0.00, -1.00, 317.3, 361.6)">r</text><text xml:space="preserve" font-family="Helvetica-Light,Helvetica" font-size="59.2" fill="#FEFFFF" transform="matrix(1.00, 0.00, -0.00, -1.00, 337.0, 361.6)">v</text><text xml:space="preserve" font-family="Helvetica-Light,Helvetica" font-size="59.2" fill="#FEFFFF" transform="matrix(1.00, 0.00, -0.00, -1.00, 366.6, 361.6)">i</text><text xml:space="preserve" font-family="Helvetica-Light,Helvetica" font-size="59.2" fill="#FEFFFF" transform="matrix(1.00, 0.00, -0.00, -1.00, 379.8, 361.6)">c</text><text xml:space="preserve" font-family="Helvetica-Light,Helvetica" font-size="59.2" fill="#FEFFFF" transform="matrix(1.00, 0.00, -0.00, -1.00, 412.7, 361.6)">e</text><text xml:space="preserve" font-family="Helvetica-Light,Helvetica" font-size="59.2" fill="#FEFFFF" transform="matrix(1.00, 0.00, -0.00, -1.00, 445.6, 361.6)">-</text><text xml:space="preserve" font-family="Helvetica-Light,Helvetica" font-size="59.2" fill="#FEFFFF" transform="matrix(1.00, 0.00, -0.00, -1.00, 465.3, 361.6)">R</text><text xml:space="preserve" font-family="Helvetica-Light,Helvetica" font-size="59.2" fill="#FEFFFF" transform="matrix(1.00, 0.00, -0.00, -1.00, 504.8, 361.6)">e</text><text xml:space="preserve" font-family="Helvetica-Light,Helvetica" font-size="59.2" fill="#FEFFFF" transform="matrix(1.00, 0.00, -0.00, -1.00, 537.7, 361.6)">a</text><text xml:space="preserve" font-family="Helvetica-Light,Helvetica" font-size="59.2" fill="#FEFFFF" transform="matrix(1.00, 0.00, -0.00, -1.00, 570.6, 361.6)">d</text><text xml:space="preserve" font-family="Helvetica-Light,Helvetica" font-size="59.2" fill="#FEFFFF" transform="matrix(1.00, 0.00, -0.00, -1.00, 606.8, 361.6)">y</text><text xml:space="preserve" font-family="Helvetica-Light,Helvetica" font-size="59.2" fill="#FEFFFF" transform="matrix(1.00, 0.00, -0.00, -1.00, 631.0, 361.6)">,</text><text xml:space="preserve" font-family="Helvetica-Light,Helvetica" font-size="59.2" fill="#FEFFFF" transform="matrix(1.00, 0.00, -0.00, -1.00, 647.4, 361.6)"> </text><text xml:space="preserve" font-family="Helvetica-Light,Helvetica" font-size="59.2" fill="#FEFFFF" transform="matrix(1.00, 0.00, -0.00, -1.00, 663.9, 361.6)">d</text><text xml:space="preserve" font-family="Helvetica-Light,Helvetica" font-size="59.2" fill="#FEFFFF" transform="matrix(1.00, 0.00, -0.00, -1.00, 700.0, 361.6)">u</text><text xml:space="preserve" font-family="Helvetica-Light,Helvetica" font-size="59.2" fill="#FEFFFF" transform="matrix(1.00, 0.00, -0.00, -1.00, 733.0, 361.6)">r</text><text xml:space="preserve" font-family="Helvetica-Light,Helvetica" font-size="59.2" fill="#FEFFFF" transform="matrix(1.00, 0.00, -0.00, -1.00, 751.6, 361.6)">c</text><text xml:space="preserve" font-family="Helvetica-Light,Helvetica" font-size="59.2" fill="#FEFFFF" transform="matrix(1.00, 0.00, -0.00, -1.00, 784.5, 361.6)">h</text><text xml:space="preserve" font-family="Helvetica-Light,Helvetica" font-size="59.2" fill="#FEFFFF" transform="matrix(1.00, 0.00, -0.00, -1.00, 817.4, 361.6)"> </text><text xml:space="preserve" font-family="Helvetica-Light,Helvetica" font-size="59.2" fill="#FEFFFF" transform="matrix(1.00, 0.00, -0.00, -1.00, 833.9, 361.6)">d</text><text xml:space="preserve" font-family="Helvetica-Light,Helvetica" font-size="59.2" fill="#FEFFFF" transform="matrix(1.00, 0.00, -0.00, -1.00, 870.1, 361.6)">i</text><text xml:space="preserve" font-family="Helvetica-Light,Helvetica" font-size="59.2" fill="#FEFFFF" transform="matrix(1.00, 0.00, -0.00, -1.00, 883.2, 361.6)">e</text><text xml:space="preserve" font-family="Helvetica-Light,Helvetica" font-size="59.2" fill="#FEFFFF" transform="matrix(1.00, 0.00, -0.00, -1.00, 916.1, 361.6)"> </text><text xml:space="preserve" font-family="Helvetica-Light,Helvetica" font-size="59.2" fill="#FEFFFF" transform="matrix(1.00, 0.00, -0.00, -1.00, 132.0, 289.6)">I</text><text xml:space="preserve" font-family="Helvetica-Light,Helvetica" font-size="59.2" fill="#FEFFFF" transform="matrix(1.00, 0.00, -0.00, -1.00, 148.5, 289.6)">n</text><text xml:space="preserve" font-family="Helvetica-Light,Helvetica" font-size="59.2" fill="#FEFFFF" transform="matrix(1.00, 0.00, -0.00, -1.00, 181.4, 289.6)">t</text><text xml:space="preserve" font-family="Helvetica-Light,Helvetica" font-size="59.2" fill="#FEFFFF" transform="matrix(1.00, 0.00, -0.00, -1.00, 197.9, 289.6)">e</text><text xml:space="preserve" font-family="Helvetica-Light,Helvetica" font-size="59.2" fill="#FEFFFF" transform="matrix(1.00, 0.00, -0.00, -1.00, 230.8, 289.6)">g</text><text xml:space="preserve" font-family="Helvetica-Light,Helvetica" font-size="59.2" fill="#FEFFFF" transform="matrix(1.00, 0.00, -0.00, -1.00, 266.9, 289.6)">r</text><text xml:space="preserve" font-family="Helvetica-Light,Helvetica" font-size="59.2" fill="#FEFFFF" transform="matrix(1.00, 0.00, -0.00, -1.00, 286.7, 289.6)">a</text><text xml:space="preserve" font-family="Helvetica-Light,Helvetica" font-size="59.2" fill="#FEFFFF" transform="matrix(1.00, 0.00, -0.00, -1.00, 319.6, 289.6)">t</text><text xml:space="preserve" font-family="Helvetica-Light,Helvetica" font-size="59.2" fill="#FEFFFF" transform="matrix(1.00, 0.00, -0.00, -1.00, 336.0, 289.6)">i</text><text xml:space="preserve" font-family="Helvetica-Light,Helvetica" font-size="59.2" fill="#FEFFFF" transform="matrix(1.00, 0.00, -0.00, -1.00, 349.2, 289.6)">o</text><text xml:space="preserve" font-family="Helvetica-Light,Helvetica" font-size="59.2" fill="#FEFFFF" transform="matrix(1.00, 0.00, -0.00, -1.00, 382.1, 289.6)">n</text><text xml:space="preserve" font-family="Helvetica-Light,Helvetica" font-size="59.2" fill="#FEFFFF" transform="matrix(1.00, 0.00, -0.00, -1.00, 415.0, 289.6)"> </text><text xml:space="preserve" font-family="Helvetica-Light,Helvetica" font-size="59.2" fill="#FEFFFF" transform="matrix(1.00, 0.00, -0.00, -1.00, 431.5, 289.6)">v</text><text xml:space="preserve" font-family="Helvetica-Light,Helvetica" font-size="59.2" fill="#FEFFFF" transform="matrix(1.00, 0.00, -0.00, -1.00, 461.1, 289.6)">o</text><text xml:space="preserve" font-family="Helvetica-Light,Helvetica" font-size="59.2" fill="#FEFFFF" transform="matrix(1.00, 0.00, -0.00, -1.00, 494.0, 289.6)">n</text><text xml:space="preserve" font-family="Helvetica-Light,Helvetica" font-size="59.2" fill="#FEFFFF" transform="matrix(1.00, 0.00, -0.00, -1.00, 526.9, 289.6)"> </text><text xml:space="preserve" font-family="Helvetica-Light,Helvetica" font-size="59.2" fill="#FEFFFF" transform="matrix(1.00, 0.00, -0.00, -1.00, 543.3, 289.6)">S</text><text xml:space="preserve" font-family="Helvetica-Light,Helvetica" font-size="59.2" fill="#FEFFFF" transform="matrix(1.00, 0.00, -0.00, -1.00, 579.5, 289.6)">p</text><text xml:space="preserve" font-family="Helvetica-Light,Helvetica" font-size="59.2" fill="#FEFFFF" transform="matrix(1.00, 0.00, -0.00, -1.00, 615.7, 289.6)">r</text><text xml:space="preserve" font-family="Helvetica-Light,Helvetica" font-size="59.2" fill="#FEFFFF" transform="matrix(1.00, 0.00, -0.00, -1.00, 635.4, 289.6)">i</text><text xml:space="preserve" font-family="Helvetica-Light,Helvetica" font-size="59.2" fill="#FEFFFF" transform="matrix(1.00, 0.00, -0.00, -1.00, 648.5, 289.6)">n</text><text xml:space="preserve" font-family="Helvetica-Light,Helvetica" font-size="59.2" fill="#FEFFFF" transform="matrix(1.00, 0.00, -0.00, -1.00, 681.5, 289.6)">g</text><text xml:space="preserve" font-family="Helvetica-Light,Helvetica" font-size="59.2" fill="#FEFFFF" transform="matrix(1.00, 0.00, -0.00, -1.00, 717.6, 289.6)"> </text><text xml:space="preserve" font-family="Helvetica-Light,Helvetica" font-size="59.2" fill="#FEFFFF" transform="matrix(1.00, 0.00, -0.00, -1.00, 734.1, 289.6)">C</text><text xml:space="preserve" font-family="Helvetica-Light,Helvetica" font-size="59.2" fill="#FEFFFF" transform="matrix(1.00, 0.00, -0.00, -1.00, 776.8, 289.6)">l</text><text xml:space="preserve" font-family="Helvetica-Light,Helvetica" font-size="59.2" fill="#FEFFFF" transform="matrix(1.00, 0.00, -0.00, -1.00, 790.0, 289.6)">o</text><text xml:space="preserve" font-family="Helvetica-Light,Helvetica" font-size="59.2" fill="#FEFFFF" transform="matrix(1.00, 0.00, -0.00, -1.00, 822.9, 289.6)">u</text><text xml:space="preserve" font-family="Helvetica-Light,Helvetica" font-size="59.2" fill="#FEFFFF" transform="matrix(1.00, 0.00, -0.00, -1.00, 855.8, 289.6)">d</text></g></svg>