<?xml version="1.0" encoding="UTF-8" standalone="no"?><svg xmlns="http://www.w3.org/2000/svg" xmlns:xlink="http://www.w3.org/1999/xlink" clip-rule="evenodd" stroke-miterlimit="10" viewBox="0 0 1024 768"><desc>SVG generated by Keynote</desc><defs></defs><g transform="matrix(1.00, 0.00, -0.00, -1.00, 0.0, 768.0)"><g><clipPath id="clip0x608000ab2960"><path d="M 0.0 768.0 L 1024.0 768.0 L 1024.0 0.0 L 0.0 0.0 Z M 0.0 768.0 "></path></clipPath><g clip-path="url(#clip0x608000ab2960)"><image xlink:href="../../D1633A7A-1E45-48FF-BA06-56002168097B/assets/4E131E180F71435CE7831D195B770FC0.jpeg" width="2048.00" height="1536.00" transform="matrix(0.50, 0.00, -0.00, -0.50, 0.0, 768.0)"></image></g></g><text xml:space="preserve" font-family="Helvetica-Light,Helvetica" font-size="80.0" fill="#FEFFFF" transform="matrix(1.00, 0.00, -0.00, -1.00, 276.4, 622.4)">S</text><text xml:space="preserve" font-family="Helvetica-Light,Helvetica" font-size="80.0" fill="#FEFFFF" transform="matrix(1.00, 0.00, -0.00, -1.00, 325.3, 622.4)">p</text><text xml:space="preserve" font-family="Helvetica-Light,Helvetica" font-size="80.0" fill="#FEFFFF" transform="matrix(1.00, 0.00, -0.00, -1.00, 374.2, 622.4)">r</text><text xml:space="preserve" font-family="Helvetica-Light,Helvetica" font-size="80.0" fill="#FEFFFF" transform="matrix(1.00, 0.00, -0.00, -1.00, 400.8, 622.4)">i</text><text xml:space="preserve" font-family="Helvetica-Light,Helvetica" font-size="80.0" fill="#FEFFFF" transform="matrix(1.00, 0.00, -0.00, -1.00, 418.6, 622.4)">n</text><text xml:space="preserve" font-family="Helvetica-Light,Helvetica" font-size="80.0" fill="#FEFFFF" transform="matrix(1.00, 0.00, -0.00, -1.00, 463.1, 622.4)">g</text><text xml:space="preserve" font-family="Helvetica-Light,Helvetica" font-size="80.0" fill="#FEFFFF" transform="matrix(1.00, 0.00, -0.00, -1.00, 512.0, 622.4)"> </text><text xml:space="preserve" font-family="Helvetica-Light,Helvetica" font-size="80.0" fill="#FEFFFF" transform="matrix(1.00, 0.00, -0.00, -1.00, 534.2, 622.4)">C</text><text xml:space="preserve" font-family="Helvetica-Light,Helvetica" font-size="80.0" fill="#FEFFFF" transform="matrix(1.00, 0.00, -0.00, -1.00, 592.0, 622.4)">l</text><text xml:space="preserve" font-family="Helvetica-Light,Helvetica" font-size="80.0" fill="#FEFFFF" transform="matrix(1.00, 0.00, -0.00, -1.00, 609.7, 622.4)">o</text><text xml:space="preserve" font-family="Helvetica-Light,Helvetica" font-size="80.0" fill="#FEFFFF" transform="matrix(1.00, 0.00, -0.00, -1.00, 654.2, 622.4)">u</text><text xml:space="preserve" font-family="Helvetica-Light,Helvetica" font-size="80.0" fill="#FEFFFF" transform="matrix(1.00, 0.00, -0.00, -1.00, 698.7, 622.4)">d</text><text xml:space="preserve" font-family="Helvetica-Light,Helvetica" font-size="22.2" fill="#FEFFFF" transform="matrix(1.00, 0.00, -0.00, -1.00, 79.0, 533.1)">•</text><text xml:space="preserve" font-family="Helvetica-Light,Helvetica" font-size="29.6" fill="#FEFFFF" transform="matrix(1.00, 0.00, -0.00, -1.00, 107.1, 529.8)">S</text><text xml:space="preserve" font-family="Helvetica-Light,Helvetica" font-size="29.6" fill="#FEFFFF" transform="matrix(1.00, 0.00, -0.00, -1.00, 125.2, 529.8)">a</text><text xml:space="preserve" font-family="Helvetica-Light,Helvetica" font-size="29.6" fill="#FEFFFF" transform="matrix(1.00, 0.00, -0.00, -1.00, 141.7, 529.8)">m</text><text xml:space="preserve" font-family="Helvetica-Light,Helvetica" font-size="29.6" fill="#FEFFFF" transform="matrix(1.00, 0.00, -0.00, -1.00, 166.4, 529.8)">m</text><text xml:space="preserve" font-family="Helvetica-Light,Helvetica" font-size="29.6" fill="#FEFFFF" transform="matrix(1.00, 0.00, -0.00, -1.00, 191.1, 529.8)">l</text><text xml:space="preserve" font-family="Helvetica-Light,Helvetica" font-size="29.6" fill="#FEFFFF" transform="matrix(1.00, 0.00, -0.00, -1.00, 197.6, 529.8)">u</text><text xml:space="preserve" font-family="Helvetica-Light,Helvetica" font-size="29.6" fill="#FEFFFF" transform="matrix(1.00, 0.00, -0.00, -1.00, 214.1, 529.8)">n</text><text xml:space="preserve" font-family="Helvetica-Light,Helvetica" font-size="29.6" fill="#FEFFFF" transform="matrix(1.00, 0.00, -0.00, -1.00, 230.6, 529.8)">g</text><text xml:space="preserve" font-family="Helvetica-Light,Helvetica" font-size="29.6" fill="#FEFFFF" transform="matrix(1.00, 0.00, -0.00, -1.00, 248.7, 529.8)"> </text><text xml:space="preserve" font-family="Helvetica-Light,Helvetica" font-size="29.6" fill="#FEFFFF" transform="matrix(1.00, 0.00, -0.00, -1.00, 256.9, 529.8)">v</text><text xml:space="preserve" font-family="Helvetica-Light,Helvetica" font-size="29.6" fill="#FEFFFF" transform="matrix(1.00, 0.00, -0.00, -1.00, 271.8, 529.8)">o</text><text xml:space="preserve" font-family="Helvetica-Light,Helvetica" font-size="29.6" fill="#FEFFFF" transform="matrix(1.00, 0.00, -0.00, -1.00, 288.2, 529.8)">n</text><text xml:space="preserve" font-family="Helvetica-Light,Helvetica" font-size="29.6" fill="#FEFFFF" transform="matrix(1.00, 0.00, -0.00, -1.00, 304.7, 529.8)"> </text><text xml:space="preserve" font-family="Helvetica-Light,Helvetica" font-size="29.6" fill="#FEFFFF" transform="matrix(1.00, 0.00, -0.00, -1.00, 313.0, 529.8)">L</text><text xml:space="preserve" font-family="Helvetica-Light,Helvetica" font-size="29.6" fill="#FEFFFF" transform="matrix(1.00, 0.00, -0.00, -1.00, 329.4, 529.8)">ö</text><text xml:space="preserve" font-family="Helvetica-Light,Helvetica" font-size="29.6" fill="#FEFFFF" transform="matrix(1.00, 0.00, -0.00, -1.00, 345.9, 529.8)">s</text><text xml:space="preserve" font-family="Helvetica-Light,Helvetica" font-size="29.6" fill="#FEFFFF" transform="matrix(1.00, 0.00, -0.00, -1.00, 360.7, 529.8)">u</text><text xml:space="preserve" font-family="Helvetica-Light,Helvetica" font-size="29.6" fill="#FEFFFF" transform="matrix(1.00, 0.00, -0.00, -1.00, 377.2, 529.8)">n</text><text xml:space="preserve" font-family="Helvetica-Light,Helvetica" font-size="29.6" fill="#FEFFFF" transform="matrix(1.00, 0.00, -0.00, -1.00, 393.7, 529.8)">g</text><text xml:space="preserve" font-family="Helvetica-Light,Helvetica" font-size="29.6" fill="#FEFFFF" transform="matrix(1.00, 0.00, -0.00, -1.00, 411.8, 529.8)">e</text><text xml:space="preserve" font-family="Helvetica-Light,Helvetica" font-size="29.6" fill="#FEFFFF" transform="matrix(1.00, 0.00, -0.00, -1.00, 428.3, 529.8)">n</text><text xml:space="preserve" font-family="Helvetica-Light,Helvetica" font-size="29.6" fill="#FEFFFF" transform="matrix(1.00, 0.00, -0.00, -1.00, 444.8, 529.8)"> </text><text xml:space="preserve" font-family="Helvetica-Light,Helvetica" font-size="29.6" fill="#FEFFFF" transform="matrix(1.00, 0.00, -0.00, -1.00, 453.0, 529.8)">f</text><text xml:space="preserve" font-family="Helvetica-Light,Helvetica" font-size="29.6" fill="#FEFFFF" transform="matrix(1.00, 0.00, -0.00, -1.00, 461.2, 529.8)">ü</text><text xml:space="preserve" font-family="Helvetica-Light,Helvetica" font-size="29.6" fill="#FEFFFF" transform="matrix(1.00, 0.00, -0.00, -1.00, 477.7, 529.8)">r</text><text xml:space="preserve" font-family="Helvetica-Light,Helvetica" font-size="29.6" fill="#FEFFFF" transform="matrix(1.00, 0.00, -0.00, -1.00, 487.6, 529.8)"> </text><text xml:space="preserve" font-family="Helvetica-Light,Helvetica" font-size="29.6" fill="#FEFFFF" transform="matrix(1.00, 0.00, -0.00, -1.00, 495.8, 529.8)">d</text><text xml:space="preserve" font-family="Helvetica-Light,Helvetica" font-size="29.6" fill="#FEFFFF" transform="matrix(1.00, 0.00, -0.00, -1.00, 513.9, 529.8)">i</text><text xml:space="preserve" font-family="Helvetica-Light,Helvetica" font-size="29.6" fill="#FEFFFF" transform="matrix(1.00, 0.00, -0.00, -1.00, 520.5, 529.8)">e</text><text xml:space="preserve" font-family="Helvetica-Light,Helvetica" font-size="29.6" fill="#FEFFFF" transform="matrix(1.00, 0.00, -0.00, -1.00, 537.0, 529.8)"> </text><text xml:space="preserve" font-family="Helvetica-Light,Helvetica" font-size="29.6" fill="#FEFFFF" transform="matrix(1.00, 0.00, -0.00, -1.00, 545.2, 529.8)">E</text><text xml:space="preserve" font-family="Helvetica-Light,Helvetica" font-size="29.6" fill="#FEFFFF" transform="matrix(1.00, 0.00, -0.00, -1.00, 563.4, 529.8)">n</text><text xml:space="preserve" font-family="Helvetica-Light,Helvetica" font-size="29.6" fill="#FEFFFF" transform="matrix(1.00, 0.00, -0.00, -1.00, 579.8, 529.8)">t</text><text xml:space="preserve" font-family="Helvetica-Light,Helvetica" font-size="29.6" fill="#FEFFFF" transform="matrix(1.00, 0.00, -0.00, -1.00, 588.1, 529.8)">w</text><text xml:space="preserve" font-family="Helvetica-Light,Helvetica" font-size="29.6" fill="#FEFFFF" transform="matrix(1.00, 0.00, -0.00, -1.00, 609.5, 529.8)">i</text><text xml:space="preserve" font-family="Helvetica-Light,Helvetica" font-size="29.6" fill="#FEFFFF" transform="matrix(1.00, 0.00, -0.00, -1.00, 616.1, 529.8)">c</text><text xml:space="preserve" font-family="Helvetica-Light,Helvetica" font-size="29.6" fill="#FEFFFF" transform="matrix(1.00, 0.00, -0.00, -1.00, 632.5, 529.8)">k</text><text xml:space="preserve" font-family="Helvetica-Light,Helvetica" font-size="29.6" fill="#FEFFFF" transform="matrix(1.00, 0.00, -0.00, -1.00, 647.4, 529.8)">l</text><text xml:space="preserve" font-family="Helvetica-Light,Helvetica" font-size="29.6" fill="#FEFFFF" transform="matrix(1.00, 0.00, -0.00, -1.00, 653.9, 529.8)">u</text><text xml:space="preserve" font-family="Helvetica-Light,Helvetica" font-size="29.6" fill="#FEFFFF" transform="matrix(1.00, 0.00, -0.00, -1.00, 670.4, 529.8)">n</text><text xml:space="preserve" font-family="Helvetica-Light,Helvetica" font-size="29.6" fill="#FEFFFF" transform="matrix(1.00, 0.00, -0.00, -1.00, 686.9, 529.8)">g</text><text xml:space="preserve" font-family="Helvetica-Light,Helvetica" font-size="29.6" fill="#FEFFFF" transform="matrix(1.00, 0.00, -0.00, -1.00, 705.0, 529.8)"> </text><text xml:space="preserve" font-family="Helvetica-Light,Helvetica" font-size="29.6" fill="#FEFFFF" transform="matrix(1.00, 0.00, -0.00, -1.00, 713.2, 529.8)">u</text><text xml:space="preserve" font-family="Helvetica-Light,Helvetica" font-size="29.6" fill="#FEFFFF" transform="matrix(1.00, 0.00, -0.00, -1.00, 729.7, 529.8)">n</text><text xml:space="preserve" font-family="Helvetica-Light,Helvetica" font-size="29.6" fill="#FEFFFF" transform="matrix(1.00, 0.00, -0.00, -1.00, 746.2, 529.8)">d</text><text xml:space="preserve" font-family="Helvetica-Light,Helvetica" font-size="29.6" fill="#FEFFFF" transform="matrix(1.00, 0.00, -0.00, -1.00, 764.3, 529.8)"> </text><text xml:space="preserve" font-family="Helvetica-Light,Helvetica" font-size="29.6" fill="#FEFFFF" transform="matrix(1.00, 0.00, -0.00, -1.00, 772.6, 529.8)">B</text><text xml:space="preserve" font-family="Helvetica-Light,Helvetica" font-size="29.6" fill="#FEFFFF" transform="matrix(1.00, 0.00, -0.00, -1.00, 792.3, 529.8)">e</text><text xml:space="preserve" font-family="Helvetica-Light,Helvetica" font-size="29.6" fill="#FEFFFF" transform="matrix(1.00, 0.00, -0.00, -1.00, 808.8, 529.8)">t</text><text xml:space="preserve" font-family="Helvetica-Light,Helvetica" font-size="29.6" fill="#FEFFFF" transform="matrix(1.00, 0.00, -0.00, -1.00, 817.0, 529.8)">r</text><text xml:space="preserve" font-family="Helvetica-Light,Helvetica" font-size="29.6" fill="#FEFFFF" transform="matrix(1.00, 0.00, -0.00, -1.00, 826.9, 529.8)">i</text><text xml:space="preserve" font-family="Helvetica-Light,Helvetica" font-size="29.6" fill="#FEFFFF" transform="matrix(1.00, 0.00, -0.00, -1.00, 833.5, 529.8)">e</text><text xml:space="preserve" font-family="Helvetica-Light,Helvetica" font-size="29.6" fill="#FEFFFF" transform="matrix(1.00, 0.00, -0.00, -1.00, 850.0, 529.8)">b</text><text xml:space="preserve" font-family="Helvetica-Light,Helvetica" font-size="29.6" fill="#FEFFFF" transform="matrix(1.00, 0.00, -0.00, -1.00, 868.1, 529.8)"> </text><text xml:space="preserve" font-family="Helvetica-Light,Helvetica" font-size="29.6" fill="#FEFFFF" transform="matrix(1.00, 0.00, -0.00, -1.00, 876.3, 529.8)">v</text><text xml:space="preserve" font-family="Helvetica-Light,Helvetica" font-size="29.6" fill="#FEFFFF" transform="matrix(1.00, 0.00, -0.00, -1.00, 891.1, 529.8)">o</text><text xml:space="preserve" font-family="Helvetica-Light,Helvetica" font-size="29.6" fill="#FEFFFF" transform="matrix(1.00, 0.00, -0.00, -1.00, 907.6, 529.8)">n</text><text xml:space="preserve" font-family="Helvetica-Light,Helvetica" font-size="29.6" fill="#FEFFFF" transform="matrix(1.00, 0.00, -0.00, -1.00, 924.1, 529.8)"> </text><text xml:space="preserve" font-family="Helvetica-Light,Helvetica" font-size="29.6" fill="#FEFFFF" transform="matrix(1.00, 0.00, -0.00, -1.00, 107.1, 493.8)">M</text><text xml:space="preserve" font-family="Helvetica-Light,Helvetica" font-size="29.6" fill="#FEFFFF" transform="matrix(1.00, 0.00, -0.00, -1.00, 131.8, 493.8)">i</text><text xml:space="preserve" font-family="Helvetica-Light,Helvetica" font-size="29.6" fill="#FEFFFF" transform="matrix(1.00, 0.00, -0.00, -1.00, 138.4, 493.8)">c</text><text xml:space="preserve" font-family="Helvetica-Light,Helvetica" font-size="29.6" fill="#FEFFFF" transform="matrix(1.00, 0.00, -0.00, -1.00, 154.8, 493.8)">r</text><text xml:space="preserve" font-family="Helvetica-Light,Helvetica" font-size="29.6" fill="#FEFFFF" transform="matrix(1.00, 0.00, -0.00, -1.00, 164.2, 493.8)">o</text><text xml:space="preserve" font-family="Helvetica-Light,Helvetica" font-size="29.6" fill="#FEFFFF" transform="matrix(1.00, 0.00, -0.00, -1.00, 180.6, 493.8)">s</text><text xml:space="preserve" font-family="Helvetica-Light,Helvetica" font-size="29.6" fill="#FEFFFF" transform="matrix(1.00, 0.00, -0.00, -1.00, 195.5, 493.8)">e</text><text xml:space="preserve" font-family="Helvetica-Light,Helvetica" font-size="29.6" fill="#FEFFFF" transform="matrix(1.00, 0.00, -0.00, -1.00, 211.9, 493.8)">r</text><text xml:space="preserve" font-family="Helvetica-Light,Helvetica" font-size="29.6" fill="#FEFFFF" transform="matrix(1.00, 0.00, -0.00, -1.00, 221.8, 493.8)">v</text><text xml:space="preserve" font-family="Helvetica-Light,Helvetica" font-size="29.6" fill="#FEFFFF" transform="matrix(1.00, 0.00, -0.00, -1.00, 236.6, 493.8)">i</text><text xml:space="preserve" font-family="Helvetica-Light,Helvetica" font-size="29.6" fill="#FEFFFF" transform="matrix(1.00, 0.00, -0.00, -1.00, 243.2, 493.8)">c</text><text xml:space="preserve" font-family="Helvetica-Light,Helvetica" font-size="29.6" fill="#FEFFFF" transform="matrix(1.00, 0.00, -0.00, -1.00, 259.7, 493.8)">e</text><text xml:space="preserve" font-family="Helvetica-Light,Helvetica" font-size="29.6" fill="#FEFFFF" transform="matrix(1.00, 0.00, -0.00, -1.00, 276.2, 493.8)">s</text><text xml:space="preserve" font-family="Helvetica-Light,Helvetica" font-size="29.6" fill="#FEFFFF" transform="matrix(1.00, 0.00, -0.00, -1.00, 291.0, 493.8)"> </text><text xml:space="preserve" font-family="Helvetica-Light,Helvetica" font-size="22.2" fill="#FEFFFF" transform="matrix(1.00, 0.00, -0.00, -1.00, 115.0, 428.4)">•</text><text xml:space="preserve" font-family="Helvetica-Light,Helvetica" font-size="29.6" fill="#FEFFFF" transform="matrix(1.00, 0.00, -0.00, -1.00, 143.1, 425.1)">R</text><text xml:space="preserve" font-family="Helvetica-Light,Helvetica" font-size="29.6" fill="#FEFFFF" transform="matrix(1.00, 0.00, -0.00, -1.00, 162.8, 425.1)">e</text><text xml:space="preserve" font-family="Helvetica-Light,Helvetica" font-size="29.6" fill="#FEFFFF" transform="matrix(1.00, 0.00, -0.00, -1.00, 179.3, 425.1)">s</text><text xml:space="preserve" font-family="Helvetica-Light,Helvetica" font-size="29.6" fill="#FEFFFF" transform="matrix(1.00, 0.00, -0.00, -1.00, 194.1, 425.1)">i</text><text xml:space="preserve" font-family="Helvetica-Light,Helvetica" font-size="29.6" fill="#FEFFFF" transform="matrix(1.00, 0.00, -0.00, -1.00, 200.7, 425.1)">l</text><text xml:space="preserve" font-family="Helvetica-Light,Helvetica" font-size="29.6" fill="#FEFFFF" transform="matrix(1.00, 0.00, -0.00, -1.00, 207.3, 425.1)">i</text><text xml:space="preserve" font-family="Helvetica-Light,Helvetica" font-size="29.6" fill="#FEFFFF" transform="matrix(1.00, 0.00, -0.00, -1.00, 213.9, 425.1)">e</text><text xml:space="preserve" font-family="Helvetica-Light,Helvetica" font-size="29.6" fill="#FEFFFF" transform="matrix(1.00, 0.00, -0.00, -1.00, 230.4, 425.1)">n</text><text xml:space="preserve" font-family="Helvetica-Light,Helvetica" font-size="29.6" fill="#FEFFFF" transform="matrix(1.00, 0.00, -0.00, -1.00, 246.8, 425.1)">c</text><text xml:space="preserve" font-family="Helvetica-Light,Helvetica" font-size="29.6" fill="#FEFFFF" transform="matrix(1.00, 0.00, -0.00, -1.00, 263.3, 425.1)">e</text><text xml:space="preserve" font-family="Helvetica-Light,Helvetica" font-size="29.6" fill="#FEFFFF" transform="matrix(1.00, 0.00, -0.00, -1.00, 279.8, 425.1)"> </text><text xml:space="preserve" font-family="Helvetica-Light,Helvetica" font-size="29.6" fill="#FEFFFF" transform="matrix(1.00, 0.00, -0.00, -1.00, 288.0, 425.1)">(</text><text xml:space="preserve" font-family="Helvetica-Light,Helvetica" font-size="29.6" fill="#FEFFFF" transform="matrix(1.00, 0.00, -0.00, -1.00, 297.9, 425.1)">A</text><text xml:space="preserve" font-family="Helvetica-Light,Helvetica" font-size="29.6" fill="#FEFFFF" transform="matrix(1.00, 0.00, -0.00, -1.00, 317.7, 425.1)">u</text><text xml:space="preserve" font-family="Helvetica-Light,Helvetica" font-size="29.6" fill="#FEFFFF" transform="matrix(1.00, 0.00, -0.00, -1.00, 334.2, 425.1)">s</text><text xml:space="preserve" font-family="Helvetica-Light,Helvetica" font-size="29.6" fill="#FEFFFF" transform="matrix(1.00, 0.00, -0.00, -1.00, 349.0, 425.1)">f</text><text xml:space="preserve" font-family="Helvetica-Light,Helvetica" font-size="29.6" fill="#FEFFFF" transform="matrix(1.00, 0.00, -0.00, -1.00, 357.2, 425.1)">a</text><text xml:space="preserve" font-family="Helvetica-Light,Helvetica" font-size="29.6" fill="#FEFFFF" transform="matrix(1.00, 0.00, -0.00, -1.00, 373.7, 425.1)">l</text><text xml:space="preserve" font-family="Helvetica-Light,Helvetica" font-size="29.6" fill="#FEFFFF" transform="matrix(1.00, 0.00, -0.00, -1.00, 380.3, 425.1)">l</text><text xml:space="preserve" font-family="Helvetica-Light,Helvetica" font-size="29.6" fill="#FEFFFF" transform="matrix(1.00, 0.00, -0.00, -1.00, 386.9, 425.1)">s</text><text xml:space="preserve" font-family="Helvetica-Light,Helvetica" font-size="29.6" fill="#FEFFFF" transform="matrix(1.00, 0.00, -0.00, -1.00, 401.7, 425.1)">i</text><text xml:space="preserve" font-family="Helvetica-Light,Helvetica" font-size="29.6" fill="#FEFFFF" transform="matrix(1.00, 0.00, -0.00, -1.00, 408.3, 425.1)">c</text><text xml:space="preserve" font-family="Helvetica-Light,Helvetica" font-size="29.6" fill="#FEFFFF" transform="matrix(1.00, 0.00, -0.00, -1.00, 424.7, 425.1)">h</text><text xml:space="preserve" font-family="Helvetica-Light,Helvetica" font-size="29.6" fill="#FEFFFF" transform="matrix(1.00, 0.00, -0.00, -1.00, 441.2, 425.1)">e</text><text xml:space="preserve" font-family="Helvetica-Light,Helvetica" font-size="29.6" fill="#FEFFFF" transform="matrix(1.00, 0.00, -0.00, -1.00, 457.7, 425.1)">r</text><text xml:space="preserve" font-family="Helvetica-Light,Helvetica" font-size="29.6" fill="#FEFFFF" transform="matrix(1.00, 0.00, -0.00, -1.00, 467.6, 425.1)">h</text><text xml:space="preserve" font-family="Helvetica-Light,Helvetica" font-size="29.6" fill="#FEFFFF" transform="matrix(1.00, 0.00, -0.00, -1.00, 484.1, 425.1)">e</text><text xml:space="preserve" font-family="Helvetica-Light,Helvetica" font-size="29.6" fill="#FEFFFF" transform="matrix(1.00, 0.00, -0.00, -1.00, 500.5, 425.1)">i</text><text xml:space="preserve" font-family="Helvetica-Light,Helvetica" font-size="29.6" fill="#FEFFFF" transform="matrix(1.00, 0.00, -0.00, -1.00, 507.1, 425.1)">t</text><text xml:space="preserve" font-family="Helvetica-Light,Helvetica" font-size="29.6" fill="#FEFFFF" transform="matrix(1.00, 0.00, -0.00, -1.00, 515.4, 425.1)">)</text><text xml:space="preserve" font-family="Helvetica-Light,Helvetica" font-size="29.6" fill="#FEFFFF" transform="matrix(1.00, 0.00, -0.00, -1.00, 525.2, 425.1)"> </text><text xml:space="preserve" font-family="Helvetica-Light,Helvetica" font-size="22.2" fill="#FEFFFF" transform="matrix(1.00, 0.00, -0.00, -1.00, 115.0, 359.6)">•</text><text xml:space="preserve" font-family="Helvetica-Light,Helvetica" font-size="29.6" fill="#FEFFFF" transform="matrix(1.00, 0.00, -0.00, -1.00, 143.1, 356.3)">S</text><text xml:space="preserve" font-family="Helvetica-Light,Helvetica" font-size="29.6" fill="#FEFFFF" transform="matrix(1.00, 0.00, -0.00, -1.00, 161.2, 356.3)">e</text><text xml:space="preserve" font-family="Helvetica-Light,Helvetica" font-size="29.6" fill="#FEFFFF" transform="matrix(1.00, 0.00, -0.00, -1.00, 177.7, 356.3)">r</text><text xml:space="preserve" font-family="Helvetica-Light,Helvetica" font-size="29.6" fill="#FEFFFF" transform="matrix(1.00, 0.00, -0.00, -1.00, 187.5, 356.3)">v</text><text xml:space="preserve" font-family="Helvetica-Light,Helvetica" font-size="29.6" fill="#FEFFFF" transform="matrix(1.00, 0.00, -0.00, -1.00, 202.4, 356.3)">i</text><text xml:space="preserve" font-family="Helvetica-Light,Helvetica" font-size="29.6" fill="#FEFFFF" transform="matrix(1.00, 0.00, -0.00, -1.00, 208.9, 356.3)">c</text><text xml:space="preserve" font-family="Helvetica-Light,Helvetica" font-size="29.6" fill="#FEFFFF" transform="matrix(1.00, 0.00, -0.00, -1.00, 225.4, 356.3)">e</text><text xml:space="preserve" font-family="Helvetica-Light,Helvetica" font-size="29.6" fill="#FEFFFF" transform="matrix(1.00, 0.00, -0.00, -1.00, 241.9, 356.3)"> </text><text xml:space="preserve" font-family="Helvetica-Light,Helvetica" font-size="29.6" fill="#FEFFFF" transform="matrix(1.00, 0.00, -0.00, -1.00, 250.1, 356.3)">R</text><text xml:space="preserve" font-family="Helvetica-Light,Helvetica" font-size="29.6" fill="#FEFFFF" transform="matrix(1.00, 0.00, -0.00, -1.00, 269.9, 356.3)">e</text><text xml:space="preserve" font-family="Helvetica-Light,Helvetica" font-size="29.6" fill="#FEFFFF" transform="matrix(1.00, 0.00, -0.00, -1.00, 286.4, 356.3)">g</text><text xml:space="preserve" font-family="Helvetica-Light,Helvetica" font-size="29.6" fill="#FEFFFF" transform="matrix(1.00, 0.00, -0.00, -1.00, 304.5, 356.3)">i</text><text xml:space="preserve" font-family="Helvetica-Light,Helvetica" font-size="29.6" fill="#FEFFFF" transform="matrix(1.00, 0.00, -0.00, -1.00, 311.1, 356.3)">s</text><text xml:space="preserve" font-family="Helvetica-Light,Helvetica" font-size="29.6" fill="#FEFFFF" transform="matrix(1.00, 0.00, -0.00, -1.00, 325.9, 356.3)">t</text><text xml:space="preserve" font-family="Helvetica-Light,Helvetica" font-size="29.6" fill="#FEFFFF" transform="matrix(1.00, 0.00, -0.00, -1.00, 334.1, 356.3)">r</text><text xml:space="preserve" font-family="Helvetica-Light,Helvetica" font-size="29.6" fill="#FEFFFF" transform="matrix(1.00, 0.00, -0.00, -1.00, 344.5, 356.3)">y</text><text xml:space="preserve" font-family="Helvetica-Light,Helvetica" font-size="29.6" fill="#FEFFFF" transform="matrix(1.00, 0.00, -0.00, -1.00, 359.4, 356.3)"> </text><text xml:space="preserve" font-family="Helvetica-Light,Helvetica" font-size="29.6" fill="#FEFFFF" transform="matrix(1.00, 0.00, -0.00, -1.00, 367.6, 356.3)">&amp;</text><text xml:space="preserve" font-family="Helvetica-Light,Helvetica" font-size="29.6" fill="#FEFFFF" transform="matrix(1.00, 0.00, -0.00, -1.00, 387.4, 356.3)"> </text><text xml:space="preserve" font-family="Helvetica-Light,Helvetica" font-size="29.6" fill="#FEFFFF" transform="matrix(1.00, 0.00, -0.00, -1.00, 395.6, 356.3)">S</text><text xml:space="preserve" font-family="Helvetica-Light,Helvetica" font-size="29.6" fill="#FEFFFF" transform="matrix(1.00, 0.00, -0.00, -1.00, 413.7, 356.3)">e</text><text xml:space="preserve" font-family="Helvetica-Light,Helvetica" font-size="29.6" fill="#FEFFFF" transform="matrix(1.00, 0.00, -0.00, -1.00, 430.2, 356.3)">r</text><text xml:space="preserve" font-family="Helvetica-Light,Helvetica" font-size="29.6" fill="#FEFFFF" transform="matrix(1.00, 0.00, -0.00, -1.00, 440.1, 356.3)">v</text><text xml:space="preserve" font-family="Helvetica-Light,Helvetica" font-size="29.6" fill="#FEFFFF" transform="matrix(1.00, 0.00, -0.00, -1.00, 454.9, 356.3)">i</text><text xml:space="preserve" font-family="Helvetica-Light,Helvetica" font-size="29.6" fill="#FEFFFF" transform="matrix(1.00, 0.00, -0.00, -1.00, 461.5, 356.3)">c</text><text xml:space="preserve" font-family="Helvetica-Light,Helvetica" font-size="29.6" fill="#FEFFFF" transform="matrix(1.00, 0.00, -0.00, -1.00, 478.0, 356.3)">e</text><text xml:space="preserve" font-family="Helvetica-Light,Helvetica" font-size="29.6" fill="#FEFFFF" transform="matrix(1.00, 0.00, -0.00, -1.00, 494.4, 356.3)"> </text><text xml:space="preserve" font-family="Helvetica-Light,Helvetica" font-size="29.6" fill="#FEFFFF" transform="matrix(1.00, 0.00, -0.00, -1.00, 502.7, 356.3)">R</text><text xml:space="preserve" font-family="Helvetica-Light,Helvetica" font-size="29.6" fill="#FEFFFF" transform="matrix(1.00, 0.00, -0.00, -1.00, 522.4, 356.3)">e</text><text xml:space="preserve" font-family="Helvetica-Light,Helvetica" font-size="29.6" fill="#FEFFFF" transform="matrix(1.00, 0.00, -0.00, -1.00, 538.9, 356.3)">c</text><text xml:space="preserve" font-family="Helvetica-Light,Helvetica" font-size="29.6" fill="#FEFFFF" transform="matrix(1.00, 0.00, -0.00, -1.00, 555.4, 356.3)">o</text><text xml:space="preserve" font-family="Helvetica-Light,Helvetica" font-size="29.6" fill="#FEFFFF" transform="matrix(1.00, 0.00, -0.00, -1.00, 571.9, 356.3)">v</text><text xml:space="preserve" font-family="Helvetica-Light,Helvetica" font-size="29.6" fill="#FEFFFF" transform="matrix(1.00, 0.00, -0.00, -1.00, 586.7, 356.3)">e</text><text xml:space="preserve" font-family="Helvetica-Light,Helvetica" font-size="29.6" fill="#FEFFFF" transform="matrix(1.00, 0.00, -0.00, -1.00, 603.2, 356.3)">r</text><text xml:space="preserve" font-family="Helvetica-Light,Helvetica" font-size="29.6" fill="#FEFFFF" transform="matrix(1.00, 0.00, -0.00, -1.00, 613.6, 356.3)">y</text><text xml:space="preserve" font-family="Helvetica-Light,Helvetica" font-size="29.6" fill="#FEFFFF" transform="matrix(1.00, 0.00, -0.00, -1.00, 628.4, 356.3)"> </text><text xml:space="preserve" font-family="Helvetica-Light,Helvetica" font-size="22.2" fill="#FEFFFF" transform="matrix(1.00, 0.00, -0.00, -1.00, 115.0, 290.8)">•</text><text xml:space="preserve" font-family="Helvetica-Light,Helvetica" font-size="29.6" fill="#FEFFFF" transform="matrix(1.00, 0.00, -0.00, -1.00, 143.1, 287.5)">L</text><text xml:space="preserve" font-family="Helvetica-Light,Helvetica" font-size="29.6" fill="#FEFFFF" transform="matrix(1.00, 0.00, -0.00, -1.00, 159.6, 287.5)">o</text><text xml:space="preserve" font-family="Helvetica-Light,Helvetica" font-size="29.6" fill="#FEFFFF" transform="matrix(1.00, 0.00, -0.00, -1.00, 176.0, 287.5)">a</text><text xml:space="preserve" font-family="Helvetica-Light,Helvetica" font-size="29.6" fill="#FEFFFF" transform="matrix(1.00, 0.00, -0.00, -1.00, 192.5, 287.5)">d</text><text xml:space="preserve" font-family="Helvetica-Light,Helvetica" font-size="29.6" fill="#FEFFFF" transform="matrix(1.00, 0.00, -0.00, -1.00, 210.6, 287.5)"> </text><text xml:space="preserve" font-family="Helvetica-Light,Helvetica" font-size="29.6" fill="#FEFFFF" transform="matrix(1.00, 0.00, -0.00, -1.00, 218.9, 287.5)">b</text><text xml:space="preserve" font-family="Helvetica-Light,Helvetica" font-size="29.6" fill="#FEFFFF" transform="matrix(1.00, 0.00, -0.00, -1.00, 237.0, 287.5)">a</text><text xml:space="preserve" font-family="Helvetica-Light,Helvetica" font-size="29.6" fill="#FEFFFF" transform="matrix(1.00, 0.00, -0.00, -1.00, 253.5, 287.5)">l</text><text xml:space="preserve" font-family="Helvetica-Light,Helvetica" font-size="29.6" fill="#FEFFFF" transform="matrix(1.00, 0.00, -0.00, -1.00, 260.0, 287.5)">a</text><text xml:space="preserve" font-family="Helvetica-Light,Helvetica" font-size="29.6" fill="#FEFFFF" transform="matrix(1.00, 0.00, -0.00, -1.00, 276.5, 287.5)">n</text><text xml:space="preserve" font-family="Helvetica-Light,Helvetica" font-size="29.6" fill="#FEFFFF" transform="matrix(1.00, 0.00, -0.00, -1.00, 293.0, 287.5)">c</text><text xml:space="preserve" font-family="Helvetica-Light,Helvetica" font-size="29.6" fill="#FEFFFF" transform="matrix(1.00, 0.00, -0.00, -1.00, 309.5, 287.5)">i</text><text xml:space="preserve" font-family="Helvetica-Light,Helvetica" font-size="29.6" fill="#FEFFFF" transform="matrix(1.00, 0.00, -0.00, -1.00, 316.1, 287.5)">n</text><text xml:space="preserve" font-family="Helvetica-Light,Helvetica" font-size="29.6" fill="#FEFFFF" transform="matrix(1.00, 0.00, -0.00, -1.00, 332.5, 287.5)">g</text><text xml:space="preserve" font-family="Helvetica-Light,Helvetica" font-size="29.6" fill="#FEFFFF" transform="matrix(1.00, 0.00, -0.00, -1.00, 350.6, 287.5)"> </text><text xml:space="preserve" font-family="Helvetica-Light,Helvetica" font-size="29.6" fill="#FEFFFF" transform="matrix(1.00, 0.00, -0.00, -1.00, 358.9, 287.5)"> </text><text xml:space="preserve" font-family="Helvetica-Light,Helvetica" font-size="22.2" fill="#FEFFFF" transform="matrix(1.00, 0.00, -0.00, -1.00, 115.0, 222.1)">•</text><text xml:space="preserve" font-family="Helvetica-Light,Helvetica" font-size="29.6" fill="#FEFFFF" transform="matrix(1.00, 0.00, -0.00, -1.00, 143.1, 218.8)">K</text><text xml:space="preserve" font-family="Helvetica-Light,Helvetica" font-size="29.6" fill="#FEFFFF" transform="matrix(1.00, 0.00, -0.00, -1.00, 162.8, 218.8)">o</text><text xml:space="preserve" font-family="Helvetica-Light,Helvetica" font-size="29.6" fill="#FEFFFF" transform="matrix(1.00, 0.00, -0.00, -1.00, 179.3, 218.8)">m</text><text xml:space="preserve" font-family="Helvetica-Light,Helvetica" font-size="29.6" fill="#FEFFFF" transform="matrix(1.00, 0.00, -0.00, -1.00, 204.0, 218.8)">m</text><text xml:space="preserve" font-family="Helvetica-Light,Helvetica" font-size="29.6" fill="#FEFFFF" transform="matrix(1.00, 0.00, -0.00, -1.00, 228.7, 218.8)">u</text><text xml:space="preserve" font-family="Helvetica-Light,Helvetica" font-size="29.6" fill="#FEFFFF" transform="matrix(1.00, 0.00, -0.00, -1.00, 245.2, 218.8)">n</text><text xml:space="preserve" font-family="Helvetica-Light,Helvetica" font-size="29.6" fill="#FEFFFF" transform="matrix(1.00, 0.00, -0.00, -1.00, 261.7, 218.8)">i</text><text xml:space="preserve" font-family="Helvetica-Light,Helvetica" font-size="29.6" fill="#FEFFFF" transform="matrix(1.00, 0.00, -0.00, -1.00, 268.2, 218.8)">k</text><text xml:space="preserve" font-family="Helvetica-Light,Helvetica" font-size="29.6" fill="#FEFFFF" transform="matrix(1.00, 0.00, -0.00, -1.00, 283.1, 218.8)">a</text><text xml:space="preserve" font-family="Helvetica-Light,Helvetica" font-size="29.6" fill="#FEFFFF" transform="matrix(1.00, 0.00, -0.00, -1.00, 299.5, 218.8)">t</text><text xml:space="preserve" font-family="Helvetica-Light,Helvetica" font-size="29.6" fill="#FEFFFF" transform="matrix(1.00, 0.00, -0.00, -1.00, 307.8, 218.8)">i</text><text xml:space="preserve" font-family="Helvetica-Light,Helvetica" font-size="29.6" fill="#FEFFFF" transform="matrix(1.00, 0.00, -0.00, -1.00, 314.4, 218.8)">o</text><text xml:space="preserve" font-family="Helvetica-Light,Helvetica" font-size="29.6" fill="#FEFFFF" transform="matrix(1.00, 0.00, -0.00, -1.00, 330.8, 218.8)">n</text><text xml:space="preserve" font-family="Helvetica-Light,Helvetica" font-size="29.6" fill="#FEFFFF" transform="matrix(1.00, 0.00, -0.00, -1.00, 347.3, 218.8)"> </text><text xml:space="preserve" font-family="Helvetica-Light,Helvetica" font-size="29.6" fill="#FEFFFF" transform="matrix(1.00, 0.00, -0.00, -1.00, 355.6, 218.8)"> </text><text xml:space="preserve" font-family="Helvetica-Light,Helvetica" font-size="22.2" fill="#FEFFFF" transform="matrix(1.00, 0.00, -0.00, -1.00, 115.0, 153.3)">•</text><text xml:space="preserve" font-family="Helvetica-Light,Helvetica" font-size="29.6" fill="#FEFFFF" transform="matrix(1.00, 0.00, -0.00, -1.00, 143.1, 150.0)">R</text><text xml:space="preserve" font-family="Helvetica-Light,Helvetica" font-size="29.6" fill="#FEFFFF" transform="matrix(1.00, 0.00, -0.00, -1.00, 162.8, 150.0)">o</text><text xml:space="preserve" font-family="Helvetica-Light,Helvetica" font-size="29.6" fill="#FEFFFF" transform="matrix(1.00, 0.00, -0.00, -1.00, 179.3, 150.0)">u</text><text xml:space="preserve" font-family="Helvetica-Light,Helvetica" font-size="29.6" fill="#FEFFFF" transform="matrix(1.00, 0.00, -0.00, -1.00, 195.8, 150.0)">t</text><text xml:space="preserve" font-family="Helvetica-Light,Helvetica" font-size="29.6" fill="#FEFFFF" transform="matrix(1.00, 0.00, -0.00, -1.00, 204.0, 150.0)">i</text><text xml:space="preserve" font-family="Helvetica-Light,Helvetica" font-size="29.6" fill="#FEFFFF" transform="matrix(1.00, 0.00, -0.00, -1.00, 210.6, 150.0)">n</text><text xml:space="preserve" font-family="Helvetica-Light,Helvetica" font-size="29.6" fill="#FEFFFF" transform="matrix(1.00, 0.00, -0.00, -1.00, 227.1, 150.0)">g</text><text xml:space="preserve" font-family="Helvetica-Light,Helvetica" font-size="29.6" fill="#FEFFFF" transform="matrix(1.00, 0.00, -0.00, -1.00, 245.2, 150.0)"> </text><text xml:space="preserve" font-family="Helvetica-Light,Helvetica" font-size="22.2" fill="#FEFFFF" transform="matrix(1.00, 0.00, -0.00, -1.00, 115.0, 84.6)">•</text><text xml:space="preserve" font-family="Helvetica-Light,Helvetica" font-size="29.6" fill="#FEFFFF" transform="matrix(1.00, 0.00, -0.00, -1.00, 143.1, 81.3)">K</text><text xml:space="preserve" font-family="Helvetica-Light,Helvetica" font-size="29.6" fill="#FEFFFF" transform="matrix(1.00, 0.00, -0.00, -1.00, 162.8, 81.3)">o</text><text xml:space="preserve" font-family="Helvetica-Light,Helvetica" font-size="29.6" fill="#FEFFFF" transform="matrix(1.00, 0.00, -0.00, -1.00, 179.3, 81.3)">n</text><text xml:space="preserve" font-family="Helvetica-Light,Helvetica" font-size="29.6" fill="#FEFFFF" transform="matrix(1.00, 0.00, -0.00, -1.00, 195.8, 81.3)">ﬁ</text><text xml:space="preserve" font-family="Helvetica-Light,Helvetica" font-size="29.6" fill="#FEFFFF" transform="matrix(1.00, 0.00, -0.00, -1.00, 210.6, 81.3)">g</text><text xml:space="preserve" font-family="Helvetica-Light,Helvetica" font-size="29.6" fill="#FEFFFF" transform="matrix(1.00, 0.00, -0.00, -1.00, 228.7, 81.3)">u</text><text xml:space="preserve" font-family="Helvetica-Light,Helvetica" font-size="29.6" fill="#FEFFFF" transform="matrix(1.00, 0.00, -0.00, -1.00, 245.2, 81.3)">r</text><text xml:space="preserve" font-family="Helvetica-Light,Helvetica" font-size="29.6" fill="#FEFFFF" transform="matrix(1.00, 0.00, -0.00, -1.00, 255.1, 81.3)">a</text><text xml:space="preserve" font-family="Helvetica-Light,Helvetica" font-size="29.6" fill="#FEFFFF" transform="matrix(1.00, 0.00, -0.00, -1.00, 271.6, 81.3)">t</text><text xml:space="preserve" font-family="Helvetica-Light,Helvetica" font-size="29.6" fill="#FEFFFF" transform="matrix(1.00, 0.00, -0.00, -1.00, 279.8, 81.3)">i</text><text xml:space="preserve" font-family="Helvetica-Light,Helvetica" font-size="29.6" fill="#FEFFFF" transform="matrix(1.00, 0.00, -0.00, -1.00, 286.4, 81.3)">o</text><text xml:space="preserve" font-family="Helvetica-Light,Helvetica" font-size="29.6" fill="#FEFFFF" transform="matrix(1.00, 0.00, -0.00, -1.00, 302.9, 81.3)">n</text></g></svg>